<?xml version="1.0" encoding="utf-8"?>
<!-- Generator: Adobe Illustrator 27.8.1, SVG Export Plug-In . SVG Version: 6.00 Build 0)  -->
<svg version="1.1" id="Layer_1" xmlns="http://www.w3.org/2000/svg" xmlns:xlink="http://www.w3.org/1999/xlink" x="0px" y="0px"
	 viewBox="0 0 842.8 1384" style="enable-background:new 0 0 842.8 1384;" xml:space="preserve">
<style type="text/css">
	.st0{fill:#6E2E69;}
</style>
<path class="st0" d="M100.7,332.8c5.1-8.8,1.8,20.6,9.4,1.1c0.5,4.1,1,8.2,1.6,12.3c-2.8,1-5.6,2.1-8.4,3.1
	C102.3,343.8,101.5,338.3,100.7,332.8C100.7,332.8,100.7,332.8,100.7,332.8z M65.4,325.3c8,5,10.2,21,17.6,3.7
	c-2.8-1.4-5.5-2.8-8.3-4.1c2.1-6,4.3-12,6.4-18c-1.1-2.1-2.1-4.3-3.1-6.4c4.8-2.7,9.6-5.5,14.4-8.2c-0.7,2.4-1.4,4.9-2.1,7.3
	c3.9,9.6,5,18.2,5.7,31.2c1.1-1.1,2.3-2.3,3.4-3.4c-1.9,6.6-3.9,13.2-5.8,19.8c-1.9-5.7-4-12.1-5.8-17.4c-7.5,8.5-3.3,23.5-1.8,31.3
	c2.1,10.6-1.4,8.2,0.1,16.1c0.2,1.3,3,1.4,3.1,3.9c0.2,12.5-1.3,36.9-7.8,22.7c0.8-20.6-4.4-38.3-2.5-58.5
	C71.3,350.5,68.7,339.9,65.4,325.3z M89.4,704.6c-3.7-6.3-2.2-19,0.4-27.6c0,0,0,0,0,0c0.6-1.9,5.4-6.2,5.2,0
	c-0.3,10.1-8,15-2.8,20.3C91.3,699.6,90.4,702.1,89.4,704.6z M89.9,726.5c-1.9,6.2-7.7,3.4-6.1-4.4c0,0,0,0,0,0
	c0.7-3.2,5.2,3.1,0.6-8.5c3.6-2.4,6.9-4.7,10.4-7.1c0.1,2.8,0.2,5.4,0.2,8.4C89,713,91.8,720.3,89.9,726.5z M84.6,414.2
	c5.3,1,5.3-3.1,9-10.1c-0.2,6.6-0.4,13.1-0.5,19.7C90.3,420.6,87.4,417.4,84.6,414.2z M85.4,260C85.4,259.9,85.4,259.9,85.4,260
	c-0.8-2.2-1.7-4.3-2.5-6.5c1.9-1.3,3.8-2.6,5.7-3.8c-1.8-7.6-3.6-15.2-5.4-22.8c5.8,0.9,4.9,14.6,8.9,22.1
	c-1.8,11.2-5.1,16.6-10.1,17.3C83.2,264.1,84.3,262.1,85.4,260z M785,1239.5c-1.6-2.5-3.2-5.1-4.8-7.6c-0.7,3.4-1.3,6.7-2.2,10.1
	c4.3,5.5,3.6,7.9,2.5,11.8c-0.7,2-1.5,4.3-1.8,7.9c-1.7,14.5-2.7,20.7-4.6,25.9c-2.1,4.7-6.8,9.9-21.7,11.2
	c15.7-12.4,4.6-13.3,5.2-24.1c2.4,0.2,4.7,3.5,6.6,6.7c1.9,3,3.8,5.8,7,2.6c2.5-10.7,1.8-20.8-0.8-30.1c-1.1-5.6-2.1-11.2-3-17.2
	c-0.8,0.6-1.5,1.2-2.3,1.8c0.5,3.2,1,6.3,1.4,9.5c-2-3.4-4.1-6.8-6.1-10.3c4.6,4.4,2-6.8,7.3-5.3c2.4,0.7,5.6,5.6,7.9,8.6
	c1.2-7.6,2.4-15.3,3.5-23c1.9,4,3.8,7.9,5.6,11.9C784.9,1233,784.9,1236.2,785,1239.5C785,1239.5,785,1239.5,785,1239.5z
	 M321.8,81.5c9.6-5.5,27.1-6.4,36.3-0.3C345.9,81.3,333.9,81.4,321.8,81.5z M78.1,266.9c0.9-1.1,1.9-2.1,2.8-3.2
	c1.7,4.8,3.4,9.6,5.2,14.4c-2.7,0.9-5.4,1.9-8.1,2.8C78,276.3,78,271.6,78.1,266.9z M81.1,574.3c-0.2-3.5-0.1-3.8,0.3-8.2
	c0,0,0,0,0,0c0.1-1.7,1.7-16.3,3.8-14.6c0,7.2,0,14.9,0,22.3C83.8,573.9,82.4,574,81.1,574.3z M82.3,489.4
	C82.3,489.4,82.3,489.4,82.3,489.4c0.3-2.7,1-5.1,1.1-7.8c3.3,9.7-2.6,11.3-0.9,20.1c1.7,8.9,4.9,14.3-3.1,21.8
	c-1.2-2.8-2.9-5.8-4.3-8.7c3.2-12.6,0.2-16-3-26C75.4,489,78.8,489.2,82.3,489.4z M688.2,1302.4c-2.4,4-5.1,0.1-5.4,0c0,0,0,0,0,0
	c-21.3,3.7,2.8-2.2-17.3-2.8c3-1,5.9-2,8.9-3C679,1298.5,683.7,1300.7,688.2,1302.4z M78.9,1236.6c1.2-0.2,2.3-0.4,3.5-0.6
	c-0.2,8.6,2.1,12.6,1.9,17.8c-0.1,1.3-0.5,2.7-1.5,4.6c-0.5-1.5-1-3-1.3-4.6C80.5,1248.1,79.7,1242.4,78.9,1236.6
	C78.9,1236.6,78.9,1236.6,78.9,1236.6z M72.6,635.1c-2.2-13.4-3.2-23.3,0.3-36.1c0,0,0,0,0,0c0.2-0.7,2.6,2.8,3.2,1.9
	c-0.4-2.7-0.9-5.4-1.4-8.1c1.9-0.4,3.9-0.7,5.8-1.1c-0.5,7.5-1.1,15.1-1.6,22.7c1.1-1.1,2.3-2.3,3.4-3.4c0.6,6.4,1.2,12.8,1.8,19.2
	c-3.2-2.2-6.4-4.5-9.6-6.7C74,627.4,73.3,631.2,72.6,635.1z M197.7,1314.7c-2.1-1.3,1.8-3.4-1.5-4.5c-3.3-1.1-9.4,1.3-7.9-2.3
	c4.4-0.5,9.1-1,13.6-1.5c-14.6-6.4-29.1-0.6-29.3-8.6c14,2.1,25.5,1.1,39-1.1c-0.6,6.3-14.1,11.8-5.6,17.7
	C203.3,1314.5,200.4,1314.7,197.7,1314.7C197.7,1314.7,197.7,1314.7,197.7,1314.7z M29.2,39.3C38,27.8,64.6,4.8,84,2.9
	c4.9-1.1,21.6,6.9,21.5,8.7c0.4,5.1-14,9.3,2.5,9c-5.3,1-10.3,2.6-15.3,4.5c2.1,3,4.1,6,5.9,9c5.4-2.3,11.1-4.1,16.9-5.4
	c0.4,1.1,0.9,2.2,1.3,3.3c-20.2,3.5-7.6,5.8-15.8,12.4c9.1-0.9,18-0.1,26.2,2c-4.7-0.3-10.3,0.1-14.5,0.6c0.6,5.8,9.6,3.1,11.3,4.3
	c4.5,3.1-4.6,3.4-13.9,7.1c-9.5,3.4-18.3,10.9-16.9,15.3c5.5-2.7,11.6-4.7,17.5-5.5c-1.3,1.5-2.5,3.1-3.6,4.7
	c-14.1-0.7-29.4,8.9-39.5,24.1c-0.4,1.6-0.7,3.2-1,4.8c2.7,0.4,5.3,0.9,8,1.4c-0.4,2.1-0.7,4.2-0.9,6.3c-6.7-8.2-10-0.5-15.3,12.3
	c0,0.1-0.1,0.3-0.1,0.4c-0.1-0.1-0.1-0.3-0.2-0.4c-3-7,0.4-15.2-5.2-15.7c-0.2,5.2-0.3,10.4-0.1,15.7c0.9,20.8-2.4,43.2,1.6,62.4
	c1.2,5.9,8.7,5.9,8,19.9c-0.8-0.5-2.3-0.6-3.4-0.9c3.6,24.2,5.7,38.9,2.1,64c2.7-1.5,5.4-2.9,8-4.3c-1.3-5.3-2.7-10.7-4-16
	c4.4-3.6,6.4,1.7,6.3-14.2c0-13-2-5.3-3.3-8.8c-1.8-4.8,1.7-9-0.3-14.2c-1.5-4-5.2,0.3-4.3-10.1c4.7,4.2,9.6,8.5,14.4,12.7
	c-1.1,2.5-2.1,5.1-3.2,7.6c-1.3-2.6-2.5-5.1-3.8-7.7c2.3,9.1,4.4,17.6,6.8,27c-6.8-3-4.3,6.6-3.5,11.9c1.3,8.2-3.4,1.2-2.7,6.5
	c0.8,5.4,6,11.1,4.9,20.8c-3-5.2-5.8,1.9-8.6,0.5c-2.8-1.4-3.4-11.6-6.5-1.8c2.3,18.9,13-1.6,14.7,11.2c2.1,15.4-15.3,19-19.1,14.4
	c-2.9-3.6-2.4-16-5.3-19.6c-5.3,22.2,5.2,22.4,7.2,26.2c7.4,13.8-12.4,4.5-5.2,20.9c-3.7-0.3-7.1-0.6-10.6-0.9
	c0.7,2.8,1.6,4.7,2.1,8.1c7.2-10,6.9-1.8,6.9,2.4c0,6.6,3.6-3.6,4.5-1.9c2.4,4.7,1.3,12.3,4.5,7.7c-1.5,2.1-3,4.3-4.4,6.4
	c1.9,7.8,17.4,26,14.2,8.6c5.8,1.6,3,7.2,2.1,11.6c-0.9,4.4,2.8,4.3,2.1,8.2c-2.7,15.3-9,5.3-13.9,2.9c3.4,20.3,5.6,0.4,7.9,29.6
	c4,2.8,8.3-10.7,10.6,0.6c-7,2.1-12,10.3-14.3,26.5c1.6,1.6,3.2,3.1,4.8,4.7c-6.4,8.8-13.1,4.3-5.1,20.6
	c-14.7-8.7-5.3-2.7-11.3,11.9c-1.2,3-4.2-3.9-5.8,0.3c-0.7,1.9,1.6,6.4-0.2,11c-0.9,2.2-6.5,12.7-3.8,19.9c7.1-5.3,13.2,8.4,19-3.3
	c-1.5,21.8,2,37-7.7,12.6c-2.2,5.5-4.3,11.1-6.4,16.6c1.7,3.9,3.4,7.7,5.1,11.6c-5.8,0.6-7.5,0-6.5,15.2c-1.4-6.6-2.8-13.2-4.2-19.8
	c-1.2-0.2-2.4-1.1-3.6-0.9c2.2,8.1,3.2,30.9,4.8,36.5c1.6,5.5,2-5.2,3.5-3.6c12.4,13.3,3.3,12.2,5.4,21.7c1.3,5.6,2.6-7.8,3.2-4.8
	c2,11.1-4.6,16.2-4.7,26.1c3.8-3.5,7.6-7,11.4-10.4c-0.2,10.3-0.2,21.8,1,31.4c0.5,3.8,3.3,0.9,3.4,1.5c1,3,2.5,15.4,2.5,16.8
	c0,9.9-3.8,10.2-4.1,19.8c-0.3-3.8-0.6-7.3-0.9-11c-6.3-1.7-12.5-3.4-18.8-5.1c-0.5,9.4-0.9,18.8-1.4,28.3
	c2.1-6.9,4.2-13.8,6.3-20.7c5.1,10.8,10.1,21.6,15.2,32.3c-3.1,5.6-6.2,11.2-9.3,16.8c0.8,15.2,13.4,12.2,2.4,19.4
	c0.9,4.5,1.9,9,2.8,13.5c-1.6-0.6-3.2-1.3-4.7-1.9c1,5.4,1.9,10.8,2.9,16.3c5.6-5.7,11.5-11.3,16.9-16.9c1.2,10.7-3.5,10.9-4.7,12.5
	c-3.1,4.2,1.1,12.6-1.8,15.9c-1,1.1-4.1-9.3-7.7-5.7c-0.7,0.7-13.9,14.7-10.9,23.6c2.4-0.2,5.3-0.9,7.9-1.2
	c1.5,12-11.1,18.1-14.6,16.5c2.5,6.4,2.7,15.7,6.5,17.1c0.1,3.3,0.2,6.5,0.3,9.8c-9.3-3.4-7.6,10.2,0.4,11.1
	c0.2-5.6,0.4-11.2,0.6-16.9c9.8,4.2,15.8-12.8,6.7,22.7c-5.1,6.8,0.7-12.1-3.1-6.5c-2.2,9.6-0.4,18.6-3.9,27.8
	c-4.5,11.4-8.7-2.6-3.1,23.9c14.2-58.4,9.6,8,14,35.4c-14,7.5-18.5,30.7-14.3,62.6c3.9-3.3,1.9-13.4,3.2-19.1
	c1.3-5.8,3.6,0.5,5.4-6.7c1.8-7.2,4.3-22.5,7.1-29.8c2.2,6.2,7.4,36.7,1.2,16.5c-3.9,15.1-7.8,22.1-8.6,40.8
	c6.1,5.6,9.9,5.2,10.1,23.4c-8.5-10.8-14.4,9.9-23.1,5.3c2-12.9,10.5-5.7,14.6-13.1c0.4-0.8-1.7-12.8-1.6-15.6
	c-7.6,12.1-10.5,16.3-19.6,8.9c0.8,8.6-0.3,13.9,4,14.7c-1.9,1.8-3.8,3.6-5.6,5.3c0,2.8,0.2,5.3,0.2,8.3c6.5-4.1,2.5,3.8,5.5,9.4
	c3,5.6,8.1-1.9,8.2,13.5c1.5-5.1,2.8-9.8,4.3-14.8c1.7,9.9,3.4,19.9,5.1,29.9c4-7,9.9-22.1,15.2-21.7c-2,4.6,1.5,20.3,1.6,22
	c0.5,6.7-2.8,3-2.9,3.5c-1.6,10.4-0.5,19-5.5,23c2.3,7.8,1,13.8,1.1,22.1c0.1,4.6,3.8,3.7,3.1,6.4c-4.7,17.8-9.4,0.9-0.4,35.2
	c2.6-4.2,5.2-8.3,7.8-12.4c1,3.9,1.9,7.8,2.9,11.6c-0.5,2.6-0.9,5.2-1.4,7.8c-5.6-0.1-11.2-0.1-16.7-0.2c-0.3,2.9-0.6,5.7-0.9,8.6
	c-0.5-4.9-1.1-9.8-1.6-14.7c-1-0.4-2-0.9-2.9-1.3c-1.5,7.3-3.1,14.5-4.6,21.8c1.9,0.1,3.9,0.3,5.8,0.4c-2.7,16.4-4.3,16.8,1,32.3
	c-0.1,12,8.1,21.8,11.5,28.7c-1.1,2.5-2.2,5-3.3,7.5c0.5,0.5,1.1,1.1,1.6,1.6c1.1,0.8,2.2,1.6,3.3,2.3c-2.1,2.4-4.1,5.1-5.9,8.1
	c5.4,0.5,6.5,0.6,7.6-8.2c6,2.8,6.1,16.1,8,22.5c1,4.8-6.2,3.1-6.5,3.9c-0.9,3.1,6,9.2,7.1,10.7c4.4,6.8,9.2,10,15.1,14.3
	c1.1,0.9,3.6,5.6,3.9,5.8c2.3,1.6,8.8,5,9.6,5.2c5.9,1.6,10.3,1.7,13.3,1.4c19.1-1.5-11.6-11.9,25.1-10.6c-1.3-1.9-2.5-3.8-3.7-5.7
	c3.2-0.1,6.5-0.2,9.8-0.3c4.1,1.6-0.9,4.5,7.3,2.2c-0.5,2.4-1.1,4.7-1.6,7.1c3.5-1.3,7-2.5,10.6-3.8c5.7,8.2,26.5,10.1,25,19.7
	c-0.5,3.3-15.3,6.6-7.5,10.1c6.3,0.7,2-3.2,4.6-3.4c18.7-1.4,17.6,4,25.2,2.6c1.2-2.3,2.5-4.8,3.7-7.1c2.9,0.7,5.8,1.4,8.7,2.1
	c0.7-1.6,1.4-3.2,2-4.7c-2.7-0.1-5.8-0.2-8.2-0.3c3.5-6.1,35.3-8.9,23.2-3.7c-4.9,2.1-14,1.2-8.3,8.4c8.5-1,18.2-2.1,27.2-3.2
	c0.3,1.6,0.5,3.1,0.8,4.7c12.1-1,1.1-7.2,1.1-10.6c2.8-0.1,5.6-0.2,8.3-0.3c1.2,1.5,2.3,3.1,3.5,4.5c0.1-2.4,1.7-8,9.9-5.9
	c5.3,1.3-3,7.4,7.1,6.6c-0.8-3.8-4.4-8.3,6.8-9.5c1.1,3.9,2.7,7.5,3.5,11.6c14-3.8,20.4,2.3,36.8-2.1c10.4-2.8,24.7-12.6,31.4,2.5
	c7.6,0.4,5.2-3.4,7.5-4.2c10.6-4,18.6,3.2,20.5,3.6c12.6,2.7,18.3,0.2,28.6,3.6c-0.6-2.8-0.9-5.4-1.3-8.2c-9.4,4.2-14.2,4-27.5,3.1
	c4.4-0.6,8.9-1.1,13.3-1.7c-0.7-2.3-1.4-4.5-2.1-6.8c-41,8.9-31.4-5.2,2.9-8.3c3,4.2,6,8.4,9,12.6c19.8-6.4,29.2-0.8,51.6,0.5
	c2.7,0.2,12.4-2.3,16.6-2.4c-0.1,0-0.1,0-0.2,0c2.6-4-0.9-5.8-1.3-9.3c2.3-0.4,4.5-0.9,6.8-1.3c5.1,2.7,3.3,4.9,13.2,4.3
	c-1.3-2.7-2.7-5.4-4-8.1c10.9-0.1,18,2.8,28.2,1.6c-1.7,1-3.4,2-5.1,3.1c22.1,2.6,4.5,18.4,21.2,10.5c1.1,1.4,2.1,2.8,3.2,4.2
	c-6.9,0.3-13.7,0.7-20.6,1c-0.1,2-0.3,3.9-0.4,5.8c7.3-0.6,14.7-1.2,22.1-1.8c-5.4,1.3-10.8,2.6-16.1,3.9c8.5,0.9,17,1.9,25.6,2.8
	c-9-7.2,2.7-8.1,0.5-15.2c15.1,5.9,26.9,13.7,50.3,8.7c4.6-1,2.1-6,15.3,0.1c-3.2-7.9,13.3-11.6,11.2-19.1c-4.6,0.4-9.3,0.6-13.8,1
	c5.1,2.6,5.9,9.8-1.8,11.9c-9.8,2.7-24.1-2.2-23.5,5.7c-3.9-0.4-7.5-0.6-11.3-0.9c1.6-2,3.1-4,4.6-5.9c-10.8,3.1-17.6,2.1-22.8-2.9
	c12.9-1.2,25.7-2.3,38.6-3.4c-1.9-0.3-3.8-0.7-5.7-1c9.8-5.1-0.3-9.9,17.9-11c-0.1,2.3-0.2,4.7-0.3,7c6.6-6.2,24.7-6.2,19-13.3
	c5.5,2.2,6.6,3.6,9.7-0.3c14.4,5.4,23.7,12.3,18.6,20.5c5.4-1.3,10.7-2.7,16.1-4c-3.1-2.2-6.2-4.5-9.3-6.7c9.3,0.1,18.7,0.3,28,0.4
	c0.9,6.6-18,2-12.5,8c1.1,1.2,6.1-1.4,7.4-0.7c13.9,7.3-7.9,2-3.8,7.6c14.6,1.2,10.7,6.2,17,6.3c2.9,0,8-0.7,16.2-4.8
	c1.2,1.7,2.5,3.4,3.7,5.1c10.8-3,8.4-6.9,16-11.6c4.4-2.9,15.2-1.1,16.6-9.5c-0.3-1.4-12.3-1.3,1-15.5c8.9-12.3,10.9-3.8,17.2-11
	c5.1-6.3,3.2-22.1,5.7-30.6c0.8-2.2,2-4,4.2-5.2c-0.5,1.6-0.9,3.3-1.2,5.2c-0.7,3.7-1.5,7.6-2.8,11c1.7,2.5,3.2,5.1,4.6,7.8
	c0.2-6.5,1-12.9,0.8-18.9c-0.1-5.7-0.5-10.9-3-15c7.3-15.5,0.5-32.9-7.8-28.2c1.2,5.1,4.8-0.4,2.5,6.6c-1.9,0.7-3.8,1.5-5.8,2.2
	c0.2-12.1,0.2-20.4,6.1-14.9c0.1-1.9,0.3-3.7,0.4-5.6c-4.3-0.3-8.5-0.6-12.8-1c-0.5-2.2-1-4.5-1.4-6.7c0.9-2.5,1.9-5,2.8-7.5
	c6.7,3.4,7,9.1,10.7-9.9c-2.3-0.1-4.6-0.1-7-0.2c3-16,8.6-16.4,8.4-36.4c8.1,15.4-6.2,23.8,10,23.7c-1.1,3.8-2.1,7.7-3.2,11.6
	c2.3,0.6,4.7,1.2,7.1,1.7c-1.2-20.7-16.7-55.1-6.4-68.9c-1.3-1.7-2.3-3.4-3.7-5.1c6.2-13.6-7.7-19.4,0.3-33.2
	c0.8-1.4,13.9,1.6,13.4-16.4c-1.7,0.5-4.5,0.7-6.7,1.1c1-3.9,2.1-7.8,3.2-11.6c-1.6-0.7-3.1-1.4-4.7-2.1c-0.6,6.6-1.2,13.2-1.8,19.8
	c-0.5-5.5-1.1-11-1.6-16.5c-2.6,7.2-2.6,10.4-6.7,6.1c-0.2-6.2-0.5-12.5-0.8-18.7c-1.1-0.6-2.1-1.3-3.2-1.9c-3.1,3-6.2,6.1-9.4,9.1
	c2.6-16.2,2.7-30.3,8.9-42.8c1-2.1,5.1,5.4,1.4-9.1c2.2-0.2,3.9-0.6,5.9-0.9c-6.1-17.7-4.2-23.5,0.1-42c-4.1,12-1.4,1.3-3.6-1.8
	c-1.5-2.1-1.3,6.1-2.9,5.1c-1.6-0.9-7.9-11.5-8.7-2.5c13,22.2-2.5,28.2,3.7,56.7c-1.7-4.4-3.3-8.8-5-13.2c-1.1,2.1-2.2,3.9-3.4,6.1
	c2.5-15.9,0.9-8.2-1.1-14.7c-2-6.5-3.7-18.4-4.2-26.4c-0.2-2.5,2.7,0.1,3-5.5c0.2-3.9-4.1-14.4,1-16.8c3.3-1.6,12.4,15.3,12.4-8.1
	c3.2-4.4,2.2,6.8,2.6,7.1c3.9,2,6.8-12.3,3.8-19c-0.3-0.5-3.3,4.7-4.4-1c-2.8-13.5,0.6-21.4,5.3-30.1c-5.5-1-12-12.4-10-26.5
	c-1.6-0.7-3.1-1.4-4.7-2.1c0.8,2.2,1.6,4.4,2.5,6.6c-1,2.4-1.7,4.9-2.9,7.3c-1.3-14.3-8.9-16.3-11.6-23.1c-9.4-23.4,10.5-9.2,14-5
	c-1.4,3-2.9,6-4.4,9c1.9-0.3,3.8-0.7,5.7-1c-0.1-35.1,12.4-5.3,15.9-23.1c-9.4-4.6-10.3-17.6-4.3-34.3c0-1.8-0.1-3.7-0.1-5.5
	c-1.4-0.3-3.5-0.3-4.4-0.8c-1.6-20.1,12.9-23.6,14.2-25.5c6.1-8.4-2.3-15-2.4-17.5c-0.3-10.5,3.4-13.5,1.8-23.5
	c-1.7-10.7-4.6-3.4-7.2-6.7c-2-2.6-2.4-11.1-4.5-14.6c1.7,1.4,3.4,2.9,5.1,4.3c2.4-11.1,4.6-20.2,5.2-32.8
	c-12.6-14.2,8.7-26.4-8.6-21.5c-1.2,12-3.1,18.6-7.5,25c-0.6-7.8-1.1-15.7-1.7-23.6c1.9-2.3,3.7-3.9,5.7-6.6
	c-4-5.9-2.3-19.5-3.5-24.8c-5.5-25-12.4-17.3-0.9-40.1c1.1,16.4,6.7,16.4,6,32.7c4-3.5,3.2-11.8,8-6.4c-1.2-15.8-5.5-10.7-9.3-16.8
	c-3.3-5.3-3.5-16-7.7-15.4c2.3-1.1,4.6-1.9,6.9-3c0-10.2,0-20.4,0-30.7c2.4,4.4,4.9,8.7,7.3,13.1c0.9-3.3,1.8-6.6,2.8-9.9
	c-7.6-25.1,6.3-68.5-12.8-61.6c-0.6-12.1,1.8-13.6,5.4-20.2c-1.5-0.7-2.7-1.4-4.3-2.2c1.5-7.8-3.9-13.8-2.5-20.7
	c1.4-6.9,6.5-8.6-2.1-9.6c2.5-4.5,4.5-8.9,6.8-13.4c-2-2.7-3.9-5.4-5.9-8c1-4.2,2.1-8.4,3.1-12.6c-4.1-2.2-2.3-18.7-5.1-26
	c4.4-6.9,18.4-6.7,15.9-22.9c-3.5,0.4-6.9,0.8-10.4,1.3c0.7-3.7,1.4-7.4,2.2-11.2c1.1-0.2,2.3-0.4,3.4-0.6c-0.4,1.9-0.7,3.8-1.1,5.7
	c1.9-1.6,3.8-3.3,5.7-4.9c-2.8-5.7-5.7-11.3-8.5-17c-2.2,7.7-4.3,15.4-6.5,23c-2.5-9.6,0-16.3-2.8-24.7c4.8-7.3,7.6-4.6,12.8-1.6
	c-0.4-2.7-0.9-5.4-1.3-8.2c5.2,1.8,8.3-2.8,7.9,13c1.5-1.1,2.9-2.2,4.4-3.3c-0.2-2.6,1-4.3,0.4-7.1c-1.6-7.8-10.7-13.7-13.9-13.2
	c-1.7,0.3,1.5,7.9-0.8,7.6c-5.8-0.8-3.2-18.3-9,7c-3.7-8.4-0.9-10.3,0.2-19.6c-1.9,0.7-3.8,1.4-5.8,2.1c0.9-4.3,1.8-8.6,2.7-12.9
	c9.9,6,13.6-25.7,22.3,2.8c0.4-8.4,0.9-16.8,1.4-25.2c1,1.7,2,3.5,3,5.2c-0.5,3.8-1.1,7.6-1.6,11.4c1.9-4.5,3.7-8.9,5.6-13.4
	c-2.3-10.6-5.8-14.7-10.2-19.5c-3.2,12.3,1.2,8.3,2,17.8c-2.8-0.3-5.3,0.1-8.2-0.7c5.7-4.9,1.6-21.1,1.3-24.8
	c-0.9-11.4,4.8-2.5,4.9-10.1c0.1-7.6-3.2-16.6,2.4-22.9c-3.1,0.1-6.4,0.6-9.2,1.1c-1-11.9,2.7-9.5,3.2-10.7
	c7.9-19.6,1.2-30.3,0.4-52.7c-1,2.8-1.8,5.7-2.8,8.6c-6.7-16.9-4.6-5.5-6.8,9.2c0.6-11.6-3.4-19-5.6-26.9c-0.4-1.3-0.8-2.5-1.2-3.7
	c-1.7-7.9-3.5-21.6-4.6-27.5c7.9,7.6,10.1,19.7,10.2,31.3c0,2.5,0.1,5,0.3,7.5c3.2-1.8,5.9-3.5,9.4-5.3c-0.5-0.8-1-1.5-1.4-2.2
	c-4.6-8-1.8-12.9-1.7-16.1c0.2-9.9-5.4-7.5-1.8-15.2c-1.8,1.1-3.4,2-5.2,3c-5.8-17.4-21.5-35.3-35.8-32.9c1.3-5.1,2.5-9.9,3.2-15.3
	c-9.7,0-16.1-5.4-24-5.4c-5.7,0.2-5.7,2.7-8.7,4.5c-1,0.7-2.3,1.3-4.4,1.7c-1.5,0.3-4.5-2.3-8.1-0.4c-3.6,1.9-16.9,16.2-18.5,3.7
	c-6.7-0.1-13.1-0.5-19.7-0.7c6.4-0.7,12.9-1.4,19.2-2.1c-5.5-3-10.9-6-16.4-9c-0.7,2.7-1.4,5.4-2.1,8.1c-14.8,3.3-25.5-1.1-40.3-0.1
	c-2.5,0.2,3.4,5.5-7.7,4.1c-11-1.4-19.2-11.3-38-7.4c-1,0.2-6.5,7.8-13.2,2.5c-1.5-1.2,4.9-3,1.4-4.5c-3.5-1.6-19.2-2.9-20.5-6.6
	c0.2,1.3,1.1,2.7,1.6,4c-2.7,0.6-5.4,1.3-8.1,1.9c-0.3-2.3-0.5-4.7-0.8-7c-15.4,5.4-23.4,14.2-46.2,11.3c6.4,3.4,12.9,6.8,19.2,10.2
	c1.8-2.4,3.5-4.8,5.3-7.1c10.5,0.9,21.1,1.9,31.6,2.8c1.7-2.7,3.4-5.4,5.2-8.1c2.8,0.4,5.6,0.7,8.4,1c-0.7,2-1.4,3.9-2.1,5.8
	c5.5-0.5,11.1-1,16.6-1.4c-11.2,11.5-31.3-1-29.8,8.7c-2.5-1.5-5-3-7.5-4.5c-1.1,4.7-6.1,3.3-15,2.6c2,2.3,4.3,4.6,6.2,6.9
	c-8.7-3.3-24-2.9-33-4.2c-3.9-0.5,0-3.9-1.2-4.3c-6-2.1-17.5,3.8-19.9,3.4c-14.4-2.8-23.7-14-39.4-6.6c16.2,1.8,7.4,1.1,13.1,5.2
	c1.8,1.3,22.7,4-3.5,2.8c-3.1-0.1-50.5-7.9-34.9-13.8c-7.7,1.9-13.7,4.1-20.7,6.1c-17.2-15.6-11.3-0.9-6.3,7.1
	c-2.8,0-5.5,0.1-8.4,0.1c6.2-8.5-25.3-9-36-4.7c-3.6,1.4,6.4,4.1-1.8,5.4c-3.9-0.6-8.4-1.4-12.6-2c6,5.4-5.8,7.5-5.6,12.9
	c-7.6-4.9-13.4-15.2-9.2-20.8c-6.3,2.3-12.5,4.5-18.8,6.8c2.9,1.3,5.8,2.6,8.8,3.9c-20.4-3.4-46.7,4.4-51-7.1
	c-2.7,0.1-5.4,0.2-8.2,0.2c-0.8,1.9-1.6,3.9-2.5,5.8c-12.3-1.7-24.5-3.4-36.8-5.1c10.9-1.2,13.5-4,25-1.7c-4.4-2.2-8.9-4.5-13.2-6.7
	c-17.2,6-19.6,10-45.5,8.2c-1.2-0.1-20.8-5.1-21.5-5.6c-3.1-2.2,1.6-5.5,0.2-6.6c-3.8-3.2-26.9-11.2-26.4-12.4
	c5.6-14.8,83.3-15,104.3-15.7c164.4-5.9,326.2-1.4,488.7,0.4c58.6-0.9,110.9,51.7,109.6,110.2c0,15.2,0.1,30.5,0.2,45.7
	c0,2.2,2.2,1.3,2.3,2.2c0.5,5.9-2.9,11.7-3,13.9c-0.3,4.7,2.9,2.1,2.9,5.5c0,35.1-1.9,68.3-1.3,103.5c0,2.3-2.5,0-2,4
	c0.2,2.1,4.1,8.6,4.2,13.3c0.2,16.4-1,30.1-1,47.4c0,9.4-0.3,23.6-0.2,34.2c0,4.7,1.8,9.5,1.8,14.1c0.1,6.5-3.5,5.2-3.7,6.2
	c-1,4.4,3,5,2.9,9.2c-0.2,7.8-2.8,8.2-2.6,18.1c0.2,7.1,2.2,23.2,2.8,32.2c-3,20.8-1.8,47.1-0.8,66.5c0.6,11.5-3.1,12.6-3.1,17.3
	c0.1,16.5,4.8,29.1,4.9,44.6c0.2,20.6-2.9,38.9-3.1,58.8c0,3.2,3.3,2.5,3.4,5.7c0.3,11.8,0.9,26.8,0.4,37.3
	c-0.5,11.7-5.4,16-4.4,27.4c0.3,3.3,4.6,4.3,5.1,9.9c0.9,9-2.9,18.8-3.3,25.1c-0.6,8.6,3.8,1.1,3.2,12.7c0,0.5-3.1,2.2-3,4.7
	c0.4,7.2,2.9,6.5,2.6,17.1c0,1-3,15.1-3,16.4c0,8.2-1.1,24.7-0.5,29.6c2.2,17.4,6.9,3.7-3.2,18.5c2.5,6.5,5,13,7.4,19.9
	c-2.3-4.6-5.5,14.1-5.3,15.4c1.7,10.9,5.7,4.4,5,18.2c-9.1-18.2-1.2,17.8-0.9,25.8c1.1,38.6-1.1,73.7-1.1,112.5
	c0,13,2,30.4,1.9,44.1c0,3.2-2.2,0.8-2.2,3.6c0,2.8,2.4-0.3,2.3,2.9c-0.8,20-5.4,35.6,0.3,53.9c-0.8,0.9-1.5,0.9-2.4,2.3
	c5.1,15-1.8,43.8-2.7,54.6c-1.5,17,2,21.3,1.3,33.6c-0.1,1.3-0.2,2.7-0.3,4.2c-0.7,25.1-19.1,50.7-3.4,40.2
	c-5.9,16.9-15.8,31.8-29.6,43.3c-1.5,1.3-2.5-1.8-3.1-1.3c-3.9,3-3.6,5.9-6.2,8.1c-7.2,5.7,3.1-5.5-7,2.7
	c-5.5,3.9-7.3,8.9-25.7,15.6c-11.6,3.9-24,6-36.4,6c-66.8,0-137.7-0.6-205.1-1c-5.2,0-1.8,2.7-8.2,2.5c-22.5-0.6-62.8-5.2-82.2-4.6
	c-19.4,0.6-15,4.7-27.2,6.3c-2.3,0.3-0.4-2-2.5-2c-14.3-0.2-31.3-3.8-42.9-4.3c-7.6-0.4-7,3.2-12.3,3.5c-7.9,0.4-16-3.3-20.3-3.4
	c-19.8-0.5-33.5,2.4-52,0.9c0.7,0.8,1.2,1.5,1.8,2.3c-21.9-0.1-43.8-0.3-65.8-0.4c1,0.7,2,1.5,3.1,2.2c-25.7-0.4-22.8-8.2-20.5,8.3
	c-1.9,0.6-3.9,1.3-5.6,1.8c0.7-8.6-14.8-14.8-34.6-17c-1.5-0.2-11.2,8.2-10.1-1.7c-2.5,2.4-4.1,4.1-6.2,6.2c-0.7-0.5-1.5-1-2.2-1.6
	c-5.4-2.4-10.5-5.2-15.1-8.4c-3.3,0-6.8-0.2-10.1-0.6c-0.9,1.8-1,3.8-2.6,5.4c-16.9-2.6-44.4-22.9-52.4-32.8
	c-21.2-20.5-36.2-51.7-31.6-76.4c0.3-1,0.6-2,0.9-2.9c-0.6-7.8-4.4-0.1-3.9-11.7c1.9-1.3,3.8-2.5,5.7-3.9
	c-8.6-9.5-3.4-11.5-1.6-24.5c1.2-8.8-0.9-14.6-0.5-22.9c0.1-2.1,2.6-1.8,2.5-3.3c-0.3-4.9-3.7-18.8-3.8-22.2
	c-0.9-31.1-0.5-57.9,0.4-87.5c0.1-3.2-2.4,0.9-2.3-2.4c0.2-5.3,4-2.2,4.2-5.3c0.5-8.6-3.5-8.6-3.7-20.6
	c-0.7-39.4,2.3-84.6,2.6-125.7c0-1.3-2.4-1.2-2.4-2.6c-0.1-9.1,3.1-18.3,3-26.6c0-13.7-3.4-24-3.3-37.6c0-26.5,1.7-50.1,1.8-77.4
	c0.1-22.3-0.2-41.7-0.2-66.1c0-106.8-7.4-215.7-3.5-323.2c0.1-2.7,2.2-1.6,2.1-2.5c-0.9-7.9-3.7-8.6,2.2-11.5
	c-1.2-10.1-5.6-13.3-5.3-25.5c0.2-6.5,7-1.6,3.5-12.7c-3.2-9.9-6.9,1-3.1-28.5c0.1-0.8,4.3-4.6,3.2-10.8c-1.1-6.2-4.1,1-5-13.9
	c-2.1-34.9,1.5-79.1,0.4-119.6c-0.1-2.5-2.3-27-3.3-31.9c-1-4.9-2.4-6.7-3.5-9c-1-3.7-2-8.2-1-18.4c2-16.6,9.6-28.8,18.5-45.5
	C21,56.1,19.4,50.5,29.2,39.3z M777.9,1199c-3.5-2.3-16.6-6.4-12.6-20.3c0.4-1.3,9.4,5.8,10.8-1.9
	C777,1184.4,777.4,1191.7,777.9,1199C778,1199,777.9,1199,777.9,1199z M125.4,77c-6.5-0.4-13.2,0.6-19.5,3c3.4-3.5,7.6-6.6,12.3-9
	C120.9,72.9,123.3,74.9,125.4,77z M86.8,1285.2C86.8,1285.2,86.8,1285.2,86.8,1285.2c6.1,5,13.1,8.4,20.1,9.9
	c-1.2,0.8-2.5,1.5-3.7,2.2c-6.1-1.2-12.4-3.6-18.2-7.4C85.5,1288.4,86.1,1286.8,86.8,1285.2z M62.9,1215.5c1.5-7,4-5.2,6.4-9.1
	c0,0,0,0,0,0c0.6-1,1.2-5.7,1.3-7.5c-1.6,0.7-3.1,1.5-4.6,2.3c-3.8-16.2,9.6-48,15-6.9c-2-0.6-3.9-1.2-5.9-1.8
	C75.6,1212.8,71.3,1235.6,62.9,1215.5z M772.3,1034.8c-6.4-17.4-7.8-23-3.4-44.2c1.8,3,3.6,6,5.5,9c-1.9,3.5-3.7,7-5.6,10.4
	c0,0,0,0,0,0c2,0.7,3.9,1.4,5.9,2.1C773.9,1019.7,773.1,1027.3,772.3,1034.8z M67.6,548.2c12.8-4.9,5.4-3.5,8.3,10.4
	c1,4.8,3.3,0.1,3.6,3.1c2,16.1-6.6,17.4-11,13.8C68.1,566.4,67.9,557.2,67.6,548.2C67.6,548.2,67.6,548.2,67.6,548.2z M64.9,129.4
	C64.9,129.4,64.9,129.4,64.9,129.4c3.1-0.4,4,6.1,6.9-1.3c0,5.6,0,11.2,0,16.8c-0.3-1.6-0.6-3.3-0.9-5c-1.1,1.5-2.2,2.9-3.2,4.4
	c3.6,2,1.5,3.8,0.3,9.7c3.8-1.6,7.7-3.2,11.5-4.9c-1.1,6.8-2.3,13.7-3.4,20.5c-1,0.1-1.9,0.2-2.9,0.3c1.2,2.6,2.5,5.1,3.7,7.7
	c-1.2,0.7-2.3,1.4-3.5,2.1c0.9,3.1,1.8,6.2,2.6,9.3c-2.8,0.9-4-5.9-3.3,6.2c-2.9-3.7-5.7-7.4-8.6-11.2
	C64.4,165.8,64.7,147.6,64.9,129.4z M71.5,674.4c-0.5-20,1.5-14.4,7.9-9.8C76.8,667.9,74.1,671.2,71.5,674.4z M466.5,1315.1
	c5.8-4.3,11.6-8.6,17.6-12.8c11.8-2.4,23.7,5.5,14.8,8.6C488.1,1314.5,476.9,1310.4,466.5,1315.1z M733.3,1311.6
	c-12,0.1-1.6-6.8-0.7-10.3c3.9,3.9,8,2.3,14.1-0.5C741.7,1304.3,735.5,1311.6,733.3,1311.6C733.3,1311.7,733.3,1311.6,733.3,1311.6z
	 M233.3,1310.2c-5.8,0.1-11.6,1.3-16.8-0.1c1.6-4.2,12-0.4,4.5-6.5c3.7-0.1,7.4-0.2,11.1-0.3C229.8,1305.7,233,1307.6,233.3,1310.2
	C233.3,1310.2,233.3,1310.2,233.3,1310.2z M76.4,868.5c-4.9,11.4-2.8,13.6,0.6,25c-4,1.6-10.7-12.1-12.2-20.6
	C68.7,871.4,72.6,870,76.4,868.5z M473.8,69.1c2.7-5.1,22.9-5.8,33-4.3c-1.2,0.8-2.4,1.5-3.6,2.3C493.4,67.8,483.6,68.5,473.8,69.1z
	 M749.7,1299.5c-1,0.5-2,1-2.9,1.4C747.7,1300.3,748.7,1299.8,749.7,1299.5z M796.6,718.7c4.8,4.8,6.4-9.4,4.5,7.8c0,0,0,0,0,0
	c-1.2,11.4-1.6,13.9-1.9,24.5c-6.2-3.8-8.4-25.2-9.7,4.3c0,0.4,3.7-0.4,3.2,4.3c-0.2,1.5-3.2,6.1-4,13.2c-0.3,2.3-1.2,19.5-1.3-4
	c-4.3,0.7-8.7-0.6-12.8-0.5c-1.2-9.2,7.2-16.2,7-25.9c-0.3-14.4-8.8-21.7,2.3-24.5c2.7,12.1,2.8,32.9-3.9,35.6
	c-0.1,11.7,5.4,15.1,8.2,5.6c-3.5-40.4,8.2-11.1,3.8-46.5c-1.6-0.4-3.2-1.9-4.7-1.7C792.7,700.2,794.9,717,796.6,718.7z
	 M784.7,803.2c-3.3-7-6.6-13.9-9.9-20.9c5.4,0,10.2,3.8,13.2,14.8C786.9,799.1,785.8,801.2,784.7,803.2z M783.3,215.7
	c-2.9-1-5.6-3.7-8.4-5.6c2.5-2.1,4.8-52.4,7.2-26.8C782.6,187,777.4,209.6,783.3,215.7z M72,789.4c-2,5.9-3.9,11.8-5.9,17.7
	c-1.2-9.1-2.5-18.2-3.8-27.2C65.6,783,68.8,786.2,72,789.4z M562.9,1320.2c-2.5-0.1,5.8-4.1-4-3.5c7.3-2.6,14.2-4.7,21.4-7.1
	c2.2,1.9,4.3,3.8,6.5,5.7c1.7-1.2,3.4-2.4,5.1-3.6c-1,2.8-1.9,5.5-3,8.3C576.7,1313.9,574,1320.6,562.9,1320.2z M203.2,1331
	c-2.2-6,15.3-9.6-1.9-10.5c3.3-4,8.5-6,18.6-6.4c1.6,1.5,3.2,3,4.9,4.5c0.2-4,2.8-5.5,8.5-8.4c0,0,0,0,0,0
	c15.3-0.3,14.4,1.1,18.1,7.7c-16.2-3.8-16.7,2.3-27.8,5.9C216,1326.3,206.1,1325.1,203.2,1331z M783.4,269.3
	c-5.1-11.5-9.8-1.2-4.4-21.5c1.3,1.3,2.6,2.6,3.8,3.9C783,257.6,783.2,263.4,783.4,269.3z M146.6,1310.4c1.3,9.3,12.1,16.5,14,1.4
	C150,1308.7,155.2,1317.3,146.6,1310.4z M731.6,1326.8c-5.4,0.7-9.1,0-11.5-1.2c-5.5-2.8-4-7.8,0-11.6c0.8-0.9,1.6-1.7,2.5-2.5
	c1.1,1.9,2.3,3.7,3.6,5.5c3-1.2,5.9-2.5,8.6-4.1C734.1,1317.5,733,1322.1,731.6,1326.8z M60.3,1029.4c6.6,15.5,3.7-16.7,7.8-5.9
	c3.3,8.6-3.4,20-7.6,15.7C60.5,1036.2,60.4,1032.9,60.3,1029.4C60.3,1029.4,60.3,1029.4,60.3,1029.4z M62.2,1119
	c7.1-2.5,5,1.1,3.7-11.1c-0.4-3.5,2.3-31.2-3.6-19.6C62.4,1098.2,62.3,1108.7,62.2,1119z M783.5,1121.6c3.1-0.2,9.9,21.2,8.2,23.9
	c0,0,0,0,0,0c-4.6,7.4-5.3-15.1-11.6-5.4c5.6-21.7-7.9-28.1,9.9-26.6C790.8,1126.3,787.1,1120.3,783.5,1121.6z M208.7,54.6
	C208.7,54.6,208.7,54.6,208.7,54.6c1.4,0.1,13.2,4.7,11.8,6.2c-14.2-1.3-11.7-4.3-24.9,0.6c-0.7-1.6-1.3-3.1-2.1-4.7
	C198.7,55.8,201.6,53.9,208.7,54.6z M789.6,161.3c0.8,5.2-2.5,14.8-2.3,20.7C774.4,163.1,786.4,140.5,789.6,161.3z M65.4,325.3
	C65.4,325.3,65.4,325.3,65.4,325.3C65.4,325.3,65.4,325.3,65.4,325.3C65.3,325.3,65.3,325.3,65.4,325.3z M781.9,566.2
	c0.8-0.7,1.6-1.1,2.2-1.2c0.1,0,0.1,0,0.2,0C783.4,565.3,782.7,565.7,781.9,566.2z M782.6,1077.2c4.3-8.9,11.1,20.8,9.5,30.3
	c-2-0.7-3.7-0.8-6-2.3C791.2,1097.5,781.9,1078.7,782.6,1077.2z M333.8,1317.9c23.4,0.1-7.1,17.1-8.3,3.5
	C325.5,1321.2,333.2,1318,333.8,1317.9z M784,1261.2c4.1,6.1,8.2-4.8,3,13.1c-1.6,0.6-3.2,1.2-4.8,1.7
	C783.4,1271.1,784,1266.1,784,1261.2z M487.4,1340.2c29.5-2.9,57.7-7.9,38.5-22.1c-2.2,0.5-4.5,0.9-6.7,1.3
	c-0.3,6.9-8.6,3.1-20.6,2.9c-1.7,2.8-8.4,3.4-9.7,5.7C486.4,1332.6,494.1,1335.8,487.4,1340.2z M51.9,481.8c1.2,0.5,2.4,0.9,3.5,1.4
	c1.3,4.7,2.7,9.3,4,14c-2.3-0.8-4.5-1.5-6.8-2.3C52.4,490.6,52.2,486.2,51.9,481.8C51.9,481.8,51.9,481.8,51.9,481.8z M799.3,831.9
	c-13-2.7-10.6,6.7-4,25.7C796.7,849.1,798,840.5,799.3,831.9z M45.9,1253.2c3.7-0.6,7.4-1.2,11.1-1.9c-3.8-10.1-8.1-8.2-13-3.4
	C44.7,1249.7,45.3,1251.4,45.9,1253.2z M44.4,1107.9c-0.8,4.2,2.2,2,2.2,2.5c-1.6,10.6-2.9,12.1-0.7,25.1c0.8,1.6,1.6,3.2,2.4,4.8
	c7.7-6,3.5-10.4,8.1-23.1c-2.7,2.3-5.3,4.6-8,6.9c0.6-7.1,1.1-14.1,1.7-21.2c-0.8-0.8-1.6-1.7-2.4-2.5
	C46.5,1102.9,45.3,1105.4,44.4,1107.9z M55.3,427.9c0.3-6.9,0.6-13.8,0.9-20.6c-1.9-0.3-3.8-0.5-5.7-0.7
	C52.1,413.6,53.7,420.8,55.3,427.9z M793.4,690.8c-0.7-0.5-1.4-1.1-2-1.5C792.2,689.3,792.9,689.9,793.4,690.8z M190.6,44.1
	c-7.8-1.3-19-0.5-27.6-0.7c0.7,4.8,22.4,3.5,30,6.4C194.3,48.9,193.9,44.7,190.6,44.1z M703.3,1327.2c-2,2.4-3.9,4.8-5.8,7.2
	c-4.7-0.3-9.5-0.5-14.2-0.8c-0.1,1.9-0.3,3.9-0.4,5.9c20.9-2.5,16.1,3.1,26.5,8.6C707.3,1341.2,705.3,1334.2,703.3,1327.2z
	 M42.9,209.2c1.3,15.1,3.8,20.5,9.6,12c-1.3-5.3-2.7-10.7-4-16C46.7,206.5,44.8,207.9,42.9,209.2z M797.8,415.6
	c-2.2-12.6,5.7-12.9,1.3-25.2c-1.5,6.6-2.9,13.2-4.4,19.8C795.8,412,796.8,413.8,797.8,415.6z M819.4,1035.9
	c2.7-5.3-10.3-15.3-0.7-30.3c-2.9-3.6-5.6-5.8-8.4-8.9c3.1-1.8,6.1-3.8,9.2-5.5c0,0,0,0,0,0c-1-13.6-4.9-4.8-8.1-5.1
	c-1.3-0.1,0.9-10.2-2-7.1c-5,5.4-2.1,25.8-8.2,25.9c2-7.2,0.3-21.1-3.8-17c-4.5,4.5,3,17.7-0.7,26.1c9.8-12,6.8,12.8-0.8,15.6
	c5.8,14.6,8.1,1.2,7.8-13.7c5.8,9.1,2.6-4.3,7.4-6.5C814.1,1018.6,811.7,1050.9,819.4,1035.9z M364.5,1342.6
	c10.1-0.4,25.8,2.9,32.7-1.9c4-2.8-11.7-5-0.9-9.5c-9.8,0.4-12,2.2-10.4,6.1c-2.2,0.5-4.5,0.9-6.7,1.4c-1-0.8-2.1-1.5-3.1-2.3
	c-1.2,1.6-2.4,3.2-3.5,4.8c-2.4-0.3-4.8-0.6-7.1-1C365.1,1341,364.7,1341.7,364.5,1342.6z M764.3,58.2c2.5,1.7,4.9,3.5,7.2,5.4
	c0.4-0.9,0.7-1.9,1.1-2.9c0.3-0.8,0.6-1.5,0.8-2.3c0.1,3.3,6.6,16.4,12,20c2.9,2,3.6-7.6,11.4,4.4c-5-9.1-11.4-16.4-18.9-22.8
	c1.7-0.5,3.4-1.1,5.2-1.5c0,0,0,0,0,0c-2.2-2.7-4.6-5.3-7.1-7.7C771.9,53,768,55.5,764.3,58.2z M39.1,1263.1
	c4.5,11.3,7.5,13.8,11,7.9c0,0,0,0,0,0c-3-3.3-5.7-7-8.2-11.1C40.9,1260.9,40,1261.9,39.1,1263.1z M809.7,608.8
	c-18.7-20.3-7.3,25.4-0.9,16.7C809.1,625.1,807.6,610.7,809.7,608.8z M736.5,1331.7c-5.4,1.3-10.9,2-16.4,2.1c-0.6,0-1.2,0-1.8,0
	c0.6,1,1.2,2.1,1.8,3.1c0.8,1.3,1.7,2.5,2.6,3.7C727.7,1338.1,732.4,1335.1,736.5,1331.7z M34.4,275c-5.1,5.9-7,20.9-1.4,28.2
	c0.7-3.9,1.3-7.7,2-11.6c0.6,7.3,1.4,14.5,2,21.8c7.2,0.4,3-8.1,5-20.8c0.3-2,9.2-14.6,2.5-18.9c-1.4-0.9-2.3,12.5-6.3,3.2
	c-0.3,4.1-0.2,7.6-0.4,11.4c-1.7,0.3-3.4,0.6-5.1,0.9C33.2,284.5,33.8,279.8,34.4,275z M423.1,1342c13.8,0.4,15.5-2.5,18.4-7.5
	c-6.4,0.6-12.9,1.1-19.3,1.7C422.5,1338.1,422.8,1340.1,423.1,1342z M32.8,398.5c-0.8,7.6,3.3,4.3,4.1,7.4c2.9,11.5,0,19.4,1.8,30.7
	c-0.8-0.8-1.5-1.4-2.3-2.2c0,0,0,0,0,0c-3.5,53.8,5.9,25.6,4.4-6.7c1.5-0.8,3.1-1.5,4.6-2.2C42.6,411.2,40.1,397.9,32.8,398.5z
	 M810.4,788.7c1-0.6,7.1,4.6,4.2-5.2c-8.9-7.8-4.5,5-7.9,8.2c-0.9-2.7-1.7-5.4-2.5-8c-2.5,15.9-0.4,18.2,6.1,12.4
	C810.7,795.7,809.4,789.3,810.4,788.7z M814.7,684.4c-13.1-2.2-7.2,17.8-3.1,17.1c0.2-2.8-2.1-4.9-1.1-7.8
	C811.5,690.8,814.6,690,814.7,684.4z M811.4,1259.3c0.1-0.4,2.3-3.3,2.9-5.5c0.4-1.1,0.2-1.8-1.5-1.6c-0.7,0.5-1.3,1-1.9,1.6
	c-7.1,9.2-4.8,24.4-1,22.7C811.2,1270.4,810.4,1266.1,811.4,1259.3C811.4,1259.3,811.4,1259.3,811.4,1259.3z M31.3,183.9
	c-0.4,0.3-2.6,15-0.5,16.9c2.3,1.6,4.8,2.3,7.2,3.5C35.8,196.2,37.4,179.8,31.3,183.9C31.3,183.9,31.3,183.9,31.3,183.9z"/>
</svg>
